<svg xmlns="http://www.w3.org/2000/svg" width="1957" height="436" fill="none"><path fill="#4B19FF" d="M81.94 436c-26.667 0-46.834-7.5-60.5-22.5C7.772 398.167.94 376.333.94 348v-20h52v24c0 22.667 9.5 34 28.5 34 9.333 0 16.333-2.667 20.999-8 5-5.667 7.5-14.667 7.5-27 0-14.667-3.333-27.5-10-38.5-6.666-11.333-19-24.833-37-40.5-22.666-20-38.5-38-47.5-54-9-16.333-13.5-34.667-13.5-55 0-27.667 7-49 21-64 14-15.333 34.334-23 61-23 26.334 0 46.167 7.667 59.5 23 13.667 15 20.5 36.667 20.5 65v14.5h-52v-18c0-12-2.333-20.667-7-26-4.666-5.667-11.5-8.5-20.5-8.5-18.333 0-27.5 11.167-27.5 33.5 0 12.667 3.334 24.5 10 35.5 7 11 19.5 24.333 37.5 40 23 20 38.834 38.167 47.5 54.5 8.667 16.333 13 35.5 13 57.5 0 28.667-7.166 50.667-21.5 66-14 15.333-34.5 23-61.5 23ZM196.474 81h81c27.333 0 47.833 7.333 61.5 22 13.666 14.667 20.5 36.167 20.5 64.5V202c0 28.333-6.834 49.833-20.5 64.5-13.667 14.667-34.167 22-61.5 22h-26V431h-55V81Zm81 157.5c9 0 15.666-2.5 20-7.5 4.666-5 7-13.5 7-25.5V164c0-12-2.334-20.5-7-25.5-4.334-5-11-7.5-20-7.5h-26v107.5h26ZM389.346 81h55v142.5h59V81h55v350h-55V273.5h-59V431h-55V81Zm209.961 0h150v50h-95v92.5h75.5v50h-75.5V381h95v50h-150V81Zm10-81h60l35 57.5h-41.5L609.307 0Zm171.64 81h81.5c28.334 0 49 6.667 62 20 13 13 19.5 33.167 19.5 60.5V183c0 36.333-12 59.333-36 69v1c13.334 4 22.667 12.167 28 24.5 5.667 12.333 8.5 28.833 8.5 49.5v61.5c0 10 .334 18.167 1 24.5.667 6 2.334 12 5 18h-56c-2-5.667-3.333-11-4-16-.666-5-1-14-1-27v-64c0-16-2.666-27.167-8-33.5-5-6.333-13.833-9.5-26.5-9.5h-19v150h-55V81Zm75 150c11 0 19.167-2.833 24.5-8.5 5.667-5.667 8.5-15.167 8.5-28.5v-27c0-12.667-2.333-21.833-7-27.5-4.333-5.667-11.333-8.5-21-8.5h-25v100h20Zm126.66-150h150.003v50h-95v92.5h75.5v50h-75.5V381h95v50H982.607V81Zm181.643 0h145.5v50h-90.5v97.5h71v50h-71V431h-55V81Zm171.87 0h55v300h90.5v50h-145.5V81Zm249.42 355c-27 0-47.66-7.667-62-23-14.33-15.333-21.5-37-21.5-65V164c0-28 7.17-49.667 21.5-65 14.34-15.333 35-23 62-23s47.67 7.667 62 23c14.34 15.333 21.5 37 21.5 65v184c0 28-7.16 49.667-21.5 65-14.33 15.333-35 23-62 23Zm0-50c19 0 28.5-11.5 28.5-34.5v-191c0-23-9.5-34.5-28.5-34.5s-28.5 11.5-28.5 34.5v191c0 23 9.5 34.5 28.5 34.5Zm107.7-305h53l24.5 269h1l26-269h60l26 269h1l24.5-269h47.5l-35.5 350h-68.5l-25-236h-1l-25 236h-73l-35.5-350Z"/></svg>